<svg width="531" height="531" viewBox="0 0 531 531" fill="none" xmlns="http://www.w3.org/2000/svg">
<circle cx="265.5" cy="265.5" r="265.5" fill="black"/>
<path d="M266.026 314.249H226.223C225.274 314.249 224.325 314.249 223.379 314.221C220.456 314.1 217.317 311.732 217.2 308.045C217.168 307.099 217.153 306.15 217.153 305.201C217.153 278.547 217.153 251.891 217.153 225.233C217.153 224.049 217.175 222.865 217.271 221.677C217.491 218.911 220.09 216.437 222.959 216.188C223.781 216.113 224.616 216.131 225.448 216.131H306.835C307.546 216.131 308.257 216.131 308.968 216.156C310.461 216.213 311.888 216.789 313.003 217.784C314.118 218.78 314.851 220.132 315.076 221.61C315.183 222.316 315.241 223.029 315.25 223.743C315.279 224.571 315.25 225.4 315.25 226.232C315.25 252.177 315.25 278.121 315.25 304.066C315.25 305.25 315.293 306.438 315.211 307.622C314.93 311.696 312.392 314.125 308.328 314.249C307.382 314.281 306.433 314.249 305.484 314.249H266.026Z" fill="white"/>
<path d="M168.033 118.021C181.306 118.021 194.579 118.021 207.853 118.021C208.799 118.021 209.748 117.993 210.697 118.043C214.018 118.21 216.507 120.457 216.969 123.731C217.079 124.675 217.124 125.626 217.104 126.576C217.104 129.775 217.104 132.975 217.104 136.175C217.104 159.641 217.104 183.098 217.104 206.547C217.142 207.853 217.093 209.159 216.958 210.458C216.525 213.729 214.014 215.958 210.683 216.147C209.855 216.193 209.023 216.172 208.194 216.172H127.853C126.907 216.172 125.954 216.207 125.009 216.133C121.908 215.88 119.32 213.388 119.103 210.462C119.007 209.285 119.004 208.097 119 206.906C119 194.704 119 182.497 119 170.286C119 155.95 119 141.61 119 127.265C119 126.081 119 124.894 119.103 123.71C119.395 120.425 122.371 118.203 125.023 118.053C126.089 117.993 127.156 118.018 128.223 118.018C141.494 118.018 154.764 118.019 168.033 118.021Z" fill="white"/>
<path d="M167.908 314.249H207.729C208.795 314.249 209.862 314.217 210.929 314.277C212.356 314.347 213.718 314.895 214.795 315.834C215.872 316.772 216.602 318.046 216.866 319.45C216.988 320.155 217.059 320.868 217.08 321.583C217.115 322.295 217.08 323.006 217.08 323.717C217.08 350.136 217.08 376.555 217.08 402.974C217.108 404.041 217.083 405.109 217.005 406.174C216.649 409.836 214.114 412.182 210.424 412.339C209.595 412.374 208.763 412.339 207.935 412.339H127.981C127.032 412.339 126.083 412.371 125.137 412.307C121.902 412.086 119.242 409.491 119.075 406.394C119.032 405.569 119.004 404.737 119.004 403.905C119.004 376.778 119.004 349.649 119.004 322.519C119.004 321.69 119.025 320.858 119.089 320.03C119.359 316.496 122.645 314.224 125.258 314.256C126.207 314.256 127.153 314.256 128.102 314.256L167.908 314.249Z" fill="white"/>
<path d="M364.208 118.022C377.482 118.022 390.755 118.022 404.028 118.022C404.974 118.022 405.924 118.022 406.873 118.022C407.824 118.04 408.759 118.269 409.612 118.692C410.464 119.115 411.211 119.721 411.801 120.468C412.592 121.367 413.063 122.502 413.141 123.697C413.209 124.877 413.233 126.061 413.233 127.252C413.233 141.711 413.233 156.169 413.233 170.628C413.233 182.716 413.233 194.805 413.233 206.893C413.233 208.077 413.233 209.265 413.141 210.448C412.91 213.602 410.048 215.924 407.246 216.119C406.304 216.187 405.351 216.158 404.402 216.158H324.772C323.705 216.158 322.638 216.187 321.572 216.134C318.105 215.952 315.602 213.577 315.243 210.089C315.169 209.143 315.143 208.194 315.165 207.245C315.165 201.556 315.165 195.868 315.165 190.179C315.165 169.321 315.165 148.471 315.165 127.629C315.165 126.445 315.129 125.254 315.243 124.074C315.599 120.596 318.087 118.207 321.554 118.029C322.5 117.98 323.449 118.008 324.398 118.008C337.669 118.015 350.939 118.02 364.208 118.022Z" fill="white"/>
<path d="M364.109 314.248H403.93C404.997 314.248 406.063 314.248 407.13 314.269C409.782 314.294 412.985 316.645 413.174 320.168C413.22 320.996 413.234 321.825 413.234 322.657C413.234 349.784 413.234 376.913 413.234 404.043C413.234 404.872 413.202 405.7 413.156 406.532C412.993 409.49 410.401 411.99 407.347 412.292C406.522 412.374 405.69 412.345 404.858 412.345H323.457C322.746 412.345 322.035 412.37 321.324 412.313C318.092 412.057 315.635 409.597 315.304 406.742C315.24 406.155 315.198 405.561 315.176 404.964C315.155 404.367 315.176 403.78 315.176 403.186C315.176 376.53 315.176 349.877 315.176 323.226C315.154 322.158 315.191 321.089 315.29 320.026C315.38 318.896 315.783 317.814 316.453 316.901C317.123 315.987 318.034 315.278 319.084 314.853C319.73 314.566 320.418 314.383 321.121 314.312C322.188 314.213 323.254 314.252 324.321 314.252L364.109 314.248Z" fill="white"/>
</svg>
