<?xml version="1.0" standalone="no"?>
<!DOCTYPE svg PUBLIC "-//W3C//DTD SVG 20010904//EN"
 "http://www.w3.org/TR/2001/REC-SVG-20010904/DTD/svg10.dtd">
<svg version="1.0" xmlns="http://www.w3.org/2000/svg"
 width="1080.000000pt" height="1080.000000pt" viewBox="0 0 1080.000000 1080.000000"
 preserveAspectRatio="xMidYMid meet">
<metadata>
Created by potrace 1.14, written by Peter Selinger 2001-2017
</metadata>
<g transform="translate(0.000000,1080.000000) scale(0.100000,-0.100000)"
fill="#000000" stroke="none">
<path d="M5219 10026 c-2 -2 -47 -6 -100 -10 -53 -4 -107 -9 -120 -11 -13 -2
-46 -6 -74 -10 -75 -9 -285 -45 -325 -55 -19 -5 -48 -12 -65 -14 -16 -3 -88
-22 -160 -41 -71 -20 -137 -37 -145 -40 -8 -2 -73 -23 -145 -48 -485 -166
-946 -422 -1355 -752 -827 -668 -1416 -1645 -1626 -2695 -8 -41 -17 -90 -20
-109 -3 -18 -7 -43 -10 -54 -2 -12 -6 -37 -9 -57 -3 -20 -7 -45 -9 -57 -3 -12
-8 -53 -11 -90 -4 -37 -8 -79 -11 -93 -20 -123 -27 -733 -11 -890 5 -41 11
-97 13 -125 11 -103 42 -313 48 -324 2 -3 7 -28 10 -56 4 -27 18 -95 31 -150
13 -55 26 -111 29 -125 3 -14 13 -50 21 -80 9 -30 18 -63 20 -74 19 -86 127
-384 203 -561 278 -647 689 -1206 1242 -1689 401 -350 965 -667 1497 -842 111
-37 279 -84 349 -99 11 -2 51 -11 89 -20 39 -9 79 -18 90 -20 194 -33 261 -43
330 -50 28 -3 75 -9 105 -13 127 -15 807 -7 897 12 12 3 49 7 82 11 57 6 76 8
131 20 14 3 42 8 64 11 21 3 48 8 60 10 11 2 33 6 48 9 130 24 422 106 587
165 1189 427 2153 1352 2656 2550 79 189 187 514 230 699 17 69 66 315 71 351
3 24 7 47 9 50 2 3 6 37 10 75 3 39 8 77 10 85 2 8 7 46 11 84 3 37 8 87 11
110 8 77 10 631 3 706 -9 91 -22 224 -25 265 -1 17 -5 44 -8 60 -6 28 -16 92
-21 140 -2 11 -6 29 -9 40 -3 11 -8 37 -11 58 -11 71 -37 191 -68 307 -16 63
-31 120 -32 125 -6 26 -78 252 -86 270 -5 11 -39 97 -75 190 -104 263 -241
530 -404 785 -89 140 -290 410 -390 523 -159 181 -409 425 -551 537 -24 19
-58 46 -75 60 -104 88 -380 277 -513 352 -217 122 -340 184 -482 243 -36 14
-83 34 -105 44 -22 10 -76 30 -120 45 -44 16 -89 32 -100 37 -65 28 -472 137
-570 152 -16 3 -70 12 -120 20 -102 18 -139 23 -315 43 -54 7 -675 16 -681 10z
m591 -149 c30 -4 85 -9 121 -12 36 -3 76 -8 90 -10 13 -2 47 -7 74 -10 56 -6
196 -30 265 -46 25 -5 54 -11 65 -13 50 -10 201 -51 315 -86 490 -149 951
-390 1370 -714 63 -49 117 -92 120 -95 3 -3 39 -35 80 -71 92 -78 324 -310
405 -404 33 -38 65 -74 70 -80 44 -47 202 -259 288 -387 151 -226 258 -421
390 -711 134 -294 282 -798 322 -1101 11 -79 16 -113 20 -127 2 -8 7 -46 11
-85 3 -38 8 -83 9 -100 23 -216 23 -641 0 -855 -2 -19 -6 -65 -10 -102 -3 -37
-7 -75 -9 -85 -2 -10 -7 -38 -10 -63 -3 -25 -8 -56 -11 -70 -2 -13 -7 -42 -10
-63 -11 -71 -55 -271 -86 -387 -177 -668 -515 -1302 -972 -1825 -89 -102 -328
-340 -431 -428 -267 -231 -572 -435 -896 -598 -120 -60 -342 -159 -356 -159
-3 0 -20 -7 -37 -15 -28 -12 -265 -93 -292 -99 -5 -2 -30 -8 -55 -15 -25 -7
-52 -15 -60 -17 -8 -2 -42 -10 -75 -19 -33 -8 -69 -17 -80 -19 -11 -2 -63 -13
-115 -24 -52 -11 -120 -23 -150 -27 -30 -4 -64 -9 -75 -11 -11 -3 -40 -7 -65
-10 -25 -3 -56 -7 -70 -9 -139 -25 -790 -25 -905 0 -11 3 -47 7 -80 9 -50 4
-172 24 -320 52 -119 22 -505 128 -560 154 -11 5 -68 27 -126 49 -177 67 -433
189 -588 283 -34 21 -65 38 -68 38 -8 0 -321 210 -349 235 -6 6 -22 17 -34 25
-12 8 -31 22 -41 32 -11 9 -39 31 -61 50 -59 47 -109 89 -143 120 -17 15 -41
36 -55 48 -91 77 -304 300 -421 440 -430 512 -767 1180 -921 1820 -30 126 -71
337 -84 430 -4 30 -8 57 -9 60 -1 3 -5 41 -10 85 -4 44 -9 89 -11 100 -23 200
-23 686 1 890 2 17 7 57 10 90 4 33 8 72 11 88 2 15 6 39 8 55 13 85 19 119
23 137 2 11 6 31 8 45 42 263 168 673 302 980 183 421 479 885 767 1200 130
142 375 378 466 450 25 19 50 40 55 46 18 20 208 160 315 231 94 62 131 86
228 144 91 54 392 209 407 209 3 0 24 9 48 19 103 48 384 152 442 165 6 1 37
10 70 20 80 24 335 84 410 96 33 6 71 12 85 14 43 8 93 15 155 21 33 4 67 8
75 10 8 2 65 7 125 10 61 4 111 8 112 9 5 5 460 -2 513 -7z"/>
<path d="M5307 9723 c-2 -1 -47 -5 -101 -8 -54 -3 -112 -7 -129 -10 -18 -2
-70 -9 -117 -15 -109 -14 -129 -17 -220 -35 -41 -8 -87 -16 -101 -19 -63 -10
-346 -89 -454 -126 -291 -101 -531 -213 -823 -385 -37 -22 -201 -132 -267
-179 -308 -221 -633 -534 -853 -821 -25 -33 -49 -62 -52 -65 -10 -8 -172 -243
-215 -311 -114 -182 -276 -502 -349 -689 -60 -154 -60 -155 -80 -207 -19 -51
-74 -231 -88 -288 -5 -22 -11 -47 -14 -55 -14 -54 -44 -184 -49 -212 -3 -18
-10 -51 -15 -73 -5 -22 -11 -60 -15 -85 -3 -25 -8 -57 -11 -72 -12 -75 -14
-94 -30 -233 -24 -215 -23 -676 1 -880 2 -16 7 -59 10 -95 3 -36 8 -72 10 -80
3 -8 7 -32 10 -52 9 -69 15 -103 20 -128 3 -14 8 -41 11 -60 34 -209 145 -578
248 -830 55 -132 204 -440 239 -491 12 -19 26 -41 29 -49 3 -9 38 -67 78 -130
528 -836 1313 -1457 2232 -1763 119 -40 227 -72 278 -82 8 -2 35 -8 60 -15 25
-7 54 -14 65 -16 11 -2 54 -11 95 -19 41 -8 89 -17 105 -20 17 -2 44 -7 60 -9
205 -33 301 -40 610 -40 268 -1 447 8 565 29 14 3 45 8 70 11 37 5 126 21 270
50 197 39 558 161 785 263 358 162 741 409 1040 671 51 45 329 323 376 375
189 215 374 473 520 730 66 115 199 375 199 389 0 3 11 29 24 58 111 244 221
609 281 933 16 84 35 207 40 260 4 33 8 74 11 90 26 196 25 747 -1 935 -3 19
-7 53 -10 75 -3 22 -7 54 -9 70 -3 17 -7 52 -10 78 -3 27 -8 52 -10 55 -2 4
-7 28 -10 54 -15 107 -69 332 -130 529 -31 104 -144 406 -166 447 -5 10 -40
82 -78 162 -314 656 -841 1270 -1427 1664 -142 96 -160 107 -305 191 -235 135
-569 279 -830 355 -41 12 -86 26 -100 31 -14 5 -36 11 -50 13 -14 3 -54 12
-90 21 -36 9 -75 18 -87 21 -13 2 -33 6 -45 8 -13 2 -43 9 -68 14 -25 6 -67
13 -95 17 -27 4 -59 9 -70 10 -11 2 -45 6 -75 10 -30 3 -66 8 -80 10 -83 13
-603 29 -613 18z m548 -157 c99 -11 154 -18 210 -27 78 -13 104 -17 140 -22
42 -6 182 -36 230 -48 22 -6 48 -13 58 -15 19 -3 20 -4 212 -65 253 -81 489
-184 725 -317 115 -64 407 -254 445 -289 11 -10 45 -37 75 -59 30 -23 66 -51
80 -63 14 -12 52 -45 85 -73 98 -84 344 -336 434 -443 319 -383 571 -819 731
-1260 17 -49 36 -99 40 -110 14 -35 58 -186 90 -310 38 -146 58 -244 80 -385
16 -103 18 -116 25 -190 4 -36 9 -73 11 -84 21 -110 20 -656 -1 -821 -2 -16
-7 -59 -11 -95 -3 -36 -8 -74 -10 -85 -2 -11 -7 -40 -10 -65 -3 -25 -8 -54
-10 -65 -2 -11 -8 -45 -14 -75 -16 -89 -18 -95 -50 -228 -59 -242 -138 -480
-227 -682 -286 -647 -689 -1175 -1220 -1601 -124 -99 -353 -262 -359 -256 -2
2 -6 23 -9 48 -2 24 -7 58 -9 74 -3 17 -7 46 -10 65 -14 97 -26 178 -31 200
-3 14 -8 41 -11 60 -3 19 -7 42 -9 50 -2 8 -7 30 -10 48 -3 17 -8 47 -11 65
-3 17 -7 41 -9 52 -1 11 -5 36 -9 55 -3 19 -8 49 -11 65 -6 38 -14 196 -20
445 -3 107 -7 209 -9 225 -15 100 -15 137 -1 164 13 27 12 37 -21 147 -19 66
-37 126 -39 134 -5 20 -28 107 -55 202 -11 43 -23 85 -25 95 -2 10 -13 51 -24
91 -10 39 -17 72 -15 72 2 0 -1 12 -7 28 -6 15 -12 34 -14 42 -2 8 -17 69 -34
135 -17 66 -33 129 -35 140 -6 28 -82 277 -111 360 -42 125 -134 329 -154 345
-3 3 -19 23 -35 45 -30 41 -201 213 -273 275 -57 49 -168 136 -254 200 l-25
18 22 113 c13 61 26 135 29 163 4 28 9 54 12 59 2 4 30 26 61 49 154 114 240
247 310 488 11 35 42 186 47 225 9 70 17 131 21 149 2 12 6 40 9 62 5 50 16
133 20 154 2 8 10 49 18 90 9 41 18 91 21 110 20 131 21 134 41 126 7 -2 21 2
32 9 10 8 13 15 7 15 -5 0 -15 -5 -22 -12 -9 -9 -12 -9 -12 0 0 7 -6 11 -12
10 -7 -2 -12 3 -10 10 1 7 5 50 7 95 6 107 16 193 28 242 24 97 25 109 12 142
-8 18 -30 42 -49 54 -34 20 -35 23 -29 62 4 23 6 92 6 154 l1 112 25 -13 c56
-29 68 9 21 70 -16 21 -30 41 -30 44 0 3 12 6 28 5 42 0 37 37 -8 52 l-35 11
28 11 c26 10 40 51 17 51 -6 0 -8 11 -4 25 4 18 -1 32 -25 57 -21 23 -27 36
-20 44 10 13 5 20 -35 48 -19 13 -19 15 -3 30 24 24 21 45 -8 58 -21 9 -25 16
-20 38 7 31 -6 45 -50 56 -17 4 -42 15 -57 24 l-27 16 33 12 c43 16 63 39 48
54 -5 5 -31 14 -57 19 -51 9 -145 49 -145 61 0 7 22 12 41 10 4 -1 15 8 24 18
10 11 24 20 32 20 7 0 13 4 13 9 0 9 -52 22 -107 26 -18 2 -48 5 -65 9 -18 3
-49 8 -68 11 -19 3 -68 20 -110 37 -95 39 -258 95 -330 114 -79 21 -142 28
-245 28 -94 0 -116 -3 -254 -29 -46 -9 -96 -18 -110 -20 -89 -11 -265 -71
-341 -117 -157 -94 -352 -255 -366 -302 -3 -12 -22 -37 -43 -56 -20 -19 -68
-71 -106 -115 -38 -44 -89 -99 -112 -122 -60 -61 -68 -79 -48 -110 10 -14 30
-30 45 -36 l28 -11 -17 -50 c-9 -28 -17 -55 -16 -61 1 -19 16 -35 33 -35 15 0
17 -12 17 -88 1 -62 5 -94 17 -112 9 -15 18 -58 22 -105 6 -92 13 -138 26
-179 6 -16 10 -30 10 -32 0 -2 -13 -1 -30 2 -24 5 -35 1 -60 -24 -18 -18 -31
-42 -32 -59 -5 -95 -3 -105 31 -213 24 -79 92 -304 127 -420 38 -131 68 -187
110 -202 18 -6 35 -19 35 -28 1 -8 3 -26 5 -40 12 -97 1 -235 -25 -311 l-18
-54 -50 3 c-46 3 -52 1 -80 -32 -17 -19 -34 -43 -37 -53 -4 -11 -52 -42 -120
-76 -103 -53 -310 -198 -415 -291 -166 -148 -322 -337 -448 -541 -64 -104
-116 -252 -137 -390 -4 -22 -9 -53 -12 -70 -12 -68 -16 -187 -17 -505 -1 -296
2 -393 18 -595 3 -27 7 -79 9 -115 3 -36 8 -87 10 -115 3 -27 8 -86 12 -130 4
-44 8 -93 10 -110 18 -174 21 -318 9 -450 -11 -110 -12 -349 -3 -390 4 -16 10
-52 13 -80 3 -27 7 -57 10 -65 2 -8 7 -28 10 -45 3 -16 14 -70 25 -120 11 -49
22 -105 25 -123 2 -18 6 -36 9 -40 2 -4 7 -26 10 -48 7 -47 10 -62 26 -129 6
-27 13 -105 15 -172 2 -67 7 -141 10 -163 l6 -42 -48 28 c-552 317 -1018 749
-1372 1274 -209 309 -373 635 -492 976 -45 127 -107 342 -129 444 -10 43 -37
184 -45 225 -2 17 -6 39 -9 50 -10 53 -16 94 -21 140 -3 28 -7 66 -10 85 -27
208 -27 759 0 960 2 14 6 48 9 75 4 28 9 61 11 75 26 156 37 221 45 250 9 34
12 50 25 115 16 79 111 400 145 485 10 25 30 77 45 115 62 158 164 370 259
534 71 122 240 383 269 413 7 7 32 40 56 72 147 197 466 525 651 668 19 15 65
51 103 81 88 70 396 277 412 277 3 0 24 12 47 26 48 30 311 164 318 161 3 0
19 6 35 15 17 8 41 20 55 26 14 5 46 19 72 31 91 40 392 137 521 167 9 2 25 6
35 8 32 9 157 35 192 41 19 3 42 8 50 10 8 2 38 6 65 10 28 3 61 8 75 10 41 8
99 14 195 21 50 4 92 8 94 10 5 5 545 -4 596 -10z m333 -1261 c13 -12 -11 -17
-53 -11 -27 4 -43 11 -39 17 6 10 81 5 92 -6z m-1673 -411 c14 -6 10 -10 -15
-21 -39 -16 -47 -12 -25 11 19 18 18 18 40 10z m-14 -234 c10 -27 14 -50 10
-50 -4 0 -13 18 -20 41 -7 23 -15 48 -18 58 -4 9 -2 13 2 9 5 -5 16 -30 26
-58z"/>
<path d="M7084 7591 c1 -8 13 -18 28 -22 20 -5 25 -4 22 6 -3 7 -14 11 -24 8
-10 -3 -20 1 -23 9 -3 10 -4 10 -3 -1z"/>
<path d="M7013 7580 c-31 -12 -29 -22 1 -10 13 5 27 6 32 2 4 -4 4 -1 0 6 -4
6 -8 12 -9 11 -1 0 -12 -4 -24 -9z"/>
<path d="M7150 7581 c0 -5 7 -12 16 -15 14 -5 15 -4 4 9 -14 17 -20 19 -20 6z"/>
</g>
</svg>
